<?xml version="1.0" standalone="no"?>
<!DOCTYPE svg PUBLIC "-//W3C//DTD SVG 20010904//EN"
 "http://www.w3.org/TR/2001/REC-SVG-20010904/DTD/svg10.dtd">
<svg version="1.0" xmlns="http://www.w3.org/2000/svg"
 width="600.000000pt" height="600.000000pt" viewBox="0 0 600.000000 600.000000"
 preserveAspectRatio="xMidYMid meet">
<metadata>
Created by potrace 1.14, written by Peter Selinger 2001-2017
</metadata>
<g transform="translate(0.000000,600.000000) scale(0.100000,-0.100000)"
fill="#000000" stroke="none">
<path d="M1800 5700 l0 -100 -202 0 -203 0 3 -100 3 -100 -100 0 -101 0 0
-100 0 -100 -102 0 -103 0 3 -100 3 -100 -100 0 -101 0 0 -100 0 -100 -100 0
-100 0 0 -100 0 -100 -100 0 -100 0 0 -51 0 -50 82 1 c46 1 91 1 101 1 16 -1
17 -29 17 -451 l0 -450 -200 0 -200 0 0 -50 0 -49 197 0 198 0 3 -50 3 -51
-200 0 -201 0 0 -29 c0 -16 6 -32 13 -34 9 -4 9 -6 0 -6 -7 -1 -13 -8 -13 -16
0 -13 29 -15 200 -15 l200 0 0 -50 0 -50 -200 0 -200 0 0 -49 0 -49 194 -2
c179 -1 195 1 199 17 3 10 5 -12 6 -49 l1 -68 -200 0 -200 0 0 -29 c0 -16 6
-32 13 -34 9 -4 9 -6 0 -6 -7 -1 -13 -8 -13 -16 0 -14 25 -16 182 -15 101 0
191 1 201 0 14 0 17 -9 17 -52 l0 -53 100 3 100 4 0 -101 0 -101 -300 0 -300
0 0 -29 c0 -16 6 -32 13 -34 9 -4 9 -6 0 -6 -7 -1 -13 -8 -13 -16 0 -14 47
-15 382 -15 211 0 391 0 401 0 14 0 17 -9 17 -50 l0 -50 -500 0 -500 0 0 -50
0 -50 600 0 600 0 0 24 c0 24 2 25 100 28 l100 3 0 -27 c0 -17 5 -28 14 -28
17 0 26 -22 26 -66 l0 -34 -720 0 -720 0 0 -50 0 -50 400 0 400 0 0 -50 0 -50
-400 0 -400 0 0 -50 0 -50 300 0 300 0 0 -50 0 -50 -300 0 -300 0 0 -50 0 -50
200 0 200 0 0 -50 0 -50 -200 0 -200 0 0 -51 0 -50 98 2 97 2 3 -52 3 -51
-100 0 -101 0 0 -600 0 -600 300 0 300 0 0 400 0 400 100 0 100 0 0 -50 0 -50
100 0 100 0 0 50 0 50 -100 0 -100 0 0 50 0 50 99 0 99 0 4 50 3 50 -102 0
-103 0 0 100 0 100 99 0 100 0 3 -53 c2 -34 7 -52 16 -51 6 1 50 2 97 3 85 1
85 1 85 28 l0 26 302 -6 c166 -4 346 -7 400 -7 91 0 98 -1 98 -20 0 -20 7 -20
600 -20 593 0 600 0 600 20 0 19 7 20 100 20 l100 0 0 -76 c0 -69 -1 -75 -19
-69 -10 3 -102 7 -204 8 -102 1 -184 4 -182 6 3 2 50 7 107 12 l103 8 -122 -5
c-77 -2 -124 0 -128 6 -4 7 -163 9 -478 5 -469 -5 -629 -14 -316 -16 90 -1
310 -5 489 -9 320 -7 317 -8 -160 -6 -267 0 -666 0 -887 -1 l-403 -3 0 -25 0
-25 600 0 c524 0 600 -2 600 -15 0 -13 -41 -15 -287 -18 l-288 -2 288 -3 287
-2 0 -50 0 -51 269 3 c148 2 267 0 264 -5 -2 -4 -393 -7 -869 -7 l-864 0 0
-30 0 -31 100 2 c55 1 100 5 100 10 0 5 17 6 38 3 44 -6 1725 -11 1862 -5 l95
4 3 -79 3 -79 -1004 3 -1003 2 4 -36 c3 -22 7 -31 12 -24 6 9 9 9 13 -1 4 -10
6 -10 6 -1 1 9 204 12 982 12 738 0 978 3 973 12 -4 7 -3 8 4 4 8 -5 12 -50
12 -137 l0 -129 100 0 100 0 0 -50 0 -49 98 -3 97 -3 3 -97 3 -98 499 0 500 0
0 50 0 50 570 0 570 0 0 25 c0 21 5 25 30 25 25 0 30 4 30 25 l0 25 -701 0
-700 0 3 50 3 51 666 -1 c600 0 667 2 673 16 3 9 4 20 0 25 -3 5 9 9 25 9 26
0 31 4 31 25 l0 25 -800 0 -800 0 0 50 0 50 770 0 770 0 0 25 c0 21 5 25 30
25 25 0 30 4 30 25 l0 25 -900 0 -900 0 0 53 0 52 870 -3 c823 -2 870 -1 871
15 1 10 1 21 0 26 0 4 13 7 29 7 25 0 30 4 30 25 l0 25 -1000 0 -1000 0 0 50
0 50 970 0 970 0 0 25 c0 21 5 25 30 25 25 0 30 4 30 25 l0 25 -1200 0 -1200
0 0 50 0 50 1160 0 c638 0 1163 0 1167 -1 10 -1 25 30 18 41 -4 6 7 10 24 10
26 0 31 4 31 25 l0 25 -1499 0 -1500 0 -4 43 -4 42 -1 -42 c-2 -34 -6 -43 -19
-43 -15 0 -17 8 -15 49 3 42 7 49 23 46 15 -3 19 2 19 26 l0 29 199 0 198 0
-1 -23 -1 -22 1273 -3 1272 -2 0 25 c0 21 5 25 30 25 25 0 30 4 30 25 l0 25
-1322 1 c-728 1 -1809 2 -2403 2 -594 1 -1034 2 -977 4 80 3 102 7 102 18 0
14 -55 14 -167 0 -24 -3 -33 0 -33 11 0 11 21 14 103 16 l102 2 -105 6 -105 6
105 5 105 5 -102 2 c-67 1 -103 6 -103 13 0 7 32 10 100 7 l100 -3 0 32 c0 28
3 31 23 27 12 -2 101 -6 197 -9 96 -2 174 -8 173 -12 -2 -4 -7 -8 -12 -8 -5 0
-13 -3 -17 -7 -3 -4 3 -6 15 -3 13 2 21 -1 21 -10 0 -7 8 -12 18 -10 9 2 54 4
100 4 75 1 82 3 82 21 0 20 7 20 480 21 264 1 487 2 495 3 8 0 15 -3 15 -9 0
-5 -4 -10 -9 -10 -5 0 -13 -3 -17 -7 -3 -4 3 -6 15 -3 12 2 21 -1 21 -8 0 -9
51 -11 202 -10 112 2 773 3 1471 3 1195 0 1267 1 1268 18 1 9 1 20 0 25 0 4
13 7 29 7 25 0 30 4 30 25 l0 25 -2109 0 -2110 0 -4 43 -4 42 -1 -42 -2 -43
-285 0 -285 0 0 75 0 75 200 0 c169 0 200 -2 200 -15 0 -11 -19 -15 -87 -18
l-88 -3 88 -2 87 -2 0 -50 0 -50 80 0 80 0 0 44 c0 39 2 44 20 41 16 -3 20 2
20 26 l0 29 500 0 500 0 0 25 0 25 -602 3 c-856 3 -787 4 -798 -13 -7 -10 -10
-11 -10 -2 0 9 -26 12 -95 12 l-95 0 0 75 0 75 83 1 c45 0 90 2 100 4 13 3 17
-4 17 -32 0 -28 3 -34 16 -29 9 3 54 6 100 6 75 0 84 2 84 18 0 18 18 19 302
25 166 4 481 7 700 7 l398 0 0 25 c0 14 -4 25 -10 25 -5 0 -11 19 -12 43 l-1
42 -7 -45 -7 -45 -1 52 c-2 47 0 51 18 48 16 -3 20 2 20 26 l0 29 299 0 298 0
6 -36 c3 -20 3 -49 0 -65 -6 -32 -15 -29 102 -32 66 -2 60 -8 64 65 1 10 4 17
9 17 4 -1 415 -1 915 0 l907 1 0 50 0 50 -2200 0 -2200 0 0 75 0 75 78 1 c42
0 87 2 100 5 12 2 22 0 22 -5 0 -9 600 -6 743 3 31 2 57 0 57 -5 0 -10 488
-12 1113 -3 l487 7 0 24 c0 23 2 23 100 23 l100 0 0 -50 0 -50 100 0 c80 0
100 3 100 14 0 8 -6 17 -12 19 -10 4 -10 6 0 6 7 1 12 14 12 31 l0 30 -100 0
-100 0 0 101 0 100 100 -3 100 -3 2 200 3 200 98 3 97 3 0 699 0 700 -100 0
-100 0 0 200 0 200 -200 0 -200 0 0 200 0 200 -100 0 -100 0 0 100 0 100 -100
0 -100 0 0 100 0 100 -800 0 -800 0 0 -100z m1643 -1493 l232 -2 -237 -3 -238
-2 2 53 2 52 3 -47 4 -48 232 -3z m341 77 c11 -4 16 -19 16 -44 0 -33 -3 -39
-20 -37 -17 1 -20 8 -20 44 0 46 0 46 24 37z m16 -206 l0 -78 -500 0 -500 0 0
70 0 70 163 1 c151 2 797 13 825 15 9 0 12 -21 12 -78z m-800 -157 c0 -24 3
-28 20 -24 18 5 20 1 18 -48 l-1 -54 -7 45 -7 45 -3 -45 -3 -45 -7 45 c-6 36
-7 25 -8 -52 -2 -74 1 -97 11 -95 6 1 11 -4 10 -10 -2 -10 20 -12 90 -11 l92
2 -82 3 c-107 5 -108 23 -2 23 l81 0 -4 98 c-3 53 -3 76 -1 50 l4 -48 100 0
99 0 0 -100 0 -100 -100 0 -100 0 0 -25 0 -25 300 0 300 0 0 -29 c0 -24 4 -29
20 -26 18 3 20 -2 20 -41 l0 -44 74 0 75 0 4 48 c2 26 4 -67 5 -205 l2 -253
-100 0 -100 0 0 -200 0 -200 -1300 0 -1300 0 0 75 0 75 1000 0 1000 0 0 26 0
26 -102 -3 -103 -4 1 33 2 32 -202 -2 -201 -3 188 -2 c145 -3 186 -6 181 -16
-6 -9 -5 -9 7 0 13 11 15 8 10 -20 -3 -17 -6 -25 -8 -16 -3 13 -13 14 -66 7
-34 -5 -115 -7 -180 -6 -96 3 -119 0 -127 -12 -6 -10 -10 -11 -10 -2 0 9 -106
12 -495 12 l-495 0 0 75 0 75 490 2 c270 2 495 2 500 0 6 -2 10 -16 10 -30 l0
-27 200 0 c148 0 200 3 200 12 0 7 9 10 21 8 12 -3 18 -1 15 3 -4 4 -12 7 -17
7 -5 0 -9 4 -9 10 0 5 39 8 95 6 l95 -3 0 31 0 31 -110 0 -110 0 -1 28 -1 27
-8 -30 c-7 -26 -8 -23 -9 22 -1 47 1 51 19 48 16 -3 20 2 20 26 l0 29 100 0
100 0 0 25 0 25 -500 0 -500 0 0 -25 0 -25 300 0 c260 0 300 -2 300 -15 0 -12
-17 -15 -87 -17 l-88 -2 90 -5 90 -6 -3 -33 c-2 -22 3 -40 13 -53 17 -18 4
-18 -699 -19 l-717 0 2 75 2 75 198 0 199 0 0 25 0 25 -200 0 -200 0 1 78 c0
56 3 71 9 55 5 -13 12 -23 14 -23 3 0 3 6 0 14 -4 11 28 15 185 21 l191 8 0
24 c0 13 -6 23 -12 22 -7 -1 -97 -1 -200 0 l-188 1 1 78 c0 42 3 71 6 65 2 -7
12 -13 21 -13 15 0 15 2 2 10 -10 6 257 10 763 10 770 0 777 0 777 -20 0 -12
7 -20 18 -20 14 0 15 2 2 10 -13 9 -13 10 0 10 13 0 13 1 0 10 -8 5 -10 10 -4
10 7 0 14 11 16 25 l5 25 -303 0 -304 0 0 100 0 100 100 0 100 0 0 -30 0 -30
100 0 100 0 0 105 0 105 100 0 100 0 0 -29z m-800 -221 l0 -100 -300 0 -300 0
0 70 0 70 200 0 200 0 0 30 0 30 100 0 100 0 0 -100z m1602 48 l3 -52 98 3
c64 2 97 -1 97 -8 0 -7 -36 -12 -97 -13 l-98 -2 100 -5 100 -5 -100 -6 -100
-6 98 -2 c85 -2 97 -4 97 -19 0 -14 -2 -15 -9 -5 -11 18 -161 15 -161 -4 0
-10 24 -14 88 -17 48 -1 -4 -4 -115 -5 l-203 -2 0 100 0 100 99 0 100 0 3 -52z
m-2803 -273 l2 -75 -100 0 -101 0 0 55 0 55 88 2 87 2 -87 3 c-69 3 -88 7 -88
18 0 12 19 15 99 15 l98 0 2 -75z m201 -205 l0 -70 -200 0 -200 0 0 70 0 70
200 0 200 0 0 -70z m0 -135 c0 -12 -17 -15 -87 -17 l-88 -2 88 -3 87 -4 0 -54
0 -55 -200 0 -200 0 0 75 0 75 200 0 c171 0 200 -2 200 -15z m1707 -115 c10
-13 8 -16 -8 -17 -10 -1 -19 0 -19 2 0 7 12 36 14 33 1 -2 7 -10 13 -18z
m-1508 -155 c2 -69 1 -72 -21 -69 -13 1 -103 3 -200 3 l-178 1 0 73 c0 41 2
76 4 78 2 2 92 0 199 -5 l194 -9 2 -72z m1001 -590 l0 -75 -406 0 -406 0 6 23
c3 12 6 37 6 55 l0 32 88 2 87 2 -87 3 c-69 3 -88 7 -88 18 0 13 56 15 400 15
l400 0 0 -75z m520 -5 c0 -10 -26 -20 -34 -13 -14 14 -5 31 14 26 11 -3 20 -9
20 -13z m794 1 c3 -5 0 -11 -8 -14 -15 -6 -26 1 -26 15 0 11 27 10 34 -1z
m-794 -61 c0 -5 -9 -10 -21 -10 -11 0 -17 5 -14 10 3 6 13 10 21 10 8 0 14 -4
14 -10z m-520 -675 c0 -13 -55 -15 -402 -17 l-403 -3 403 -2 402 -3 0 -39 c0
-22 3 -46 6 -55 6 -14 -44 -16 -519 -16 l-525 0 -4 34 c-4 35 10 66 31 66 6 0
11 12 11 28 l0 27 500 -3 c434 -2 500 -4 500 -17z m-1184 -76 c-4 -24 -3 -38
3 -35 5 3 11 -1 15 -9 4 -10 -1 -15 -14 -15 -17 0 -20 7 -20 50 0 30 4 50 11
50 8 0 9 -13 5 -41z m2184 -379 l0 -80 -220 0 -220 0 0 49 c0 44 2 49 20 46
16 -3 20 2 20 25 l0 30 198 3 c108 1 198 3 200 5 1 1 2 -34 2 -78z"/>
<path d="M2848 3913 c23 -2 61 -2 85 0 23 2 4 4 -43 4 -47 0 -66 -2 -42 -4z"/>
<path d="M2601 3714 c0 -11 3 -14 6 -6 3 7 2 16 -1 19 -3 4 -6 -2 -5 -13z"/>
<path d="M2621 3714 c0 -11 3 -14 6 -6 3 7 2 16 -1 19 -3 4 -6 -2 -5 -13z"/>
<path d="M3004 3644 c3 -9 6 -20 6 -25 0 -4 7 -5 17 -2 9 4 14 2 11 -3 -4 -5
29 -7 80 -4 l87 5 -85 5 -85 6 75 5 75 5 -83 1 c-114 0 -114 10 0 12 126 3
126 11 -1 11 -90 0 -102 -2 -97 -16z"/>
<path d="M1523 3513 c48 -2 125 -2 170 0 45 1 6 3 -88 3 -93 0 -130 -2 -82 -3z"/>
<path d="M2143 3513 c82 -2 212 -2 290 0 78 1 12 3 -148 3 -159 0 -223 -2
-142 -3z"/>
<path d="M2838 3513 c23 -2 61 -2 85 0 23 2 4 4 -43 4 -47 0 -66 -2 -42 -4z"/>
<path d="M3343 3513 c82 -2 212 -2 290 0 78 1 12 3 -148 3 -159 0 -223 -2
-142 -3z"/>
<path d="M3823 3445 c0 -22 2 -30 4 -17 2 12 2 30 0 40 -3 9 -5 -1 -4 -23z"/>
<path d="M3802 3430 c0 -14 2 -19 5 -12 2 6 2 18 0 25 -3 6 -5 1 -5 -13z"/>
<path d="M2200 3375 l0 -25 248 0 c137 0 317 -3 400 -7 l152 -6 0 32 0 31
-400 0 -400 -1 0 -24z"/>
<path d="M1473 3113 c26 -2 67 -2 90 0 23 2 2 3 -48 3 -49 0 -68 -1 -42 -3z"/>
<path d="M3073 3113 c26 -2 67 -2 90 0 23 2 2 3 -48 3 -49 0 -68 -1 -42 -3z"/>
<path d="M2992 3055 c0 -16 2 -22 5 -12 2 9 2 23 0 30 -3 6 -5 -1 -5 -18z"/>
<path d="M2693 2873 c53 -2 141 -2 195 0 53 1 9 3 -98 3 -107 0 -151 -2 -97
-3z"/>
<path d="M2600 2825 c0 -9 9 -15 21 -15 18 0 19 2 5 15 -8 8 -17 15 -20 15 -3
0 -6 -7 -6 -15z"/>
<path d="M3409 2798 c-14 -48 -15 -48 91 -48 100 0 100 0 100 25 0 25 0 25
-95 25 -52 0 -95 -1 -96 -2z"/>
<path d="M1473 2713 c26 -2 67 -2 90 0 23 2 2 3 -48 3 -49 0 -68 -1 -42 -3z"/>
<path d="M3800 3620 c0 -5 5 -10 10 -10 6 0 10 5 10 10 0 6 -4 10 -10 10 -5 0
-10 -4 -10 -10z"/>
<path d="M1325 2920 c3 -5 13 -10 21 -10 8 0 14 5 14 10 0 6 -9 10 -21 10 -11
0 -17 -4 -14 -10z"/>
<path d="M3073 1113 c26 -2 67 -2 90 0 23 2 2 3 -48 3 -49 0 -68 -1 -42 -3z"/>
<path d="M2972 1055 c0 -16 2 -22 5 -12 2 9 2 23 0 30 -3 6 -5 -1 -5 -18z"/>
<path d="M2993 1045 c0 -22 2 -30 4 -17 2 12 2 30 0 40 -3 9 -5 -1 -4 -23z"/>
<path d="M5400 5750 l0 -50 100 0 100 0 0 -150 0 -150 -100 0 -100 0 0 -29 c0
-16 6 -32 13 -34 10 -4 10 -6 0 -6 -7 -1 -13 -8 -13 -16 0 -12 18 -15 100 -15
l100 0 0 -150 0 -150 100 0 100 0 0 178 0 177 100 -3 100 -4 0 26 0 26 -100 0
-100 0 1 78 c0 42 3 71 6 65 2 -7 12 -13 21 -13 15 0 15 2 2 10 -10 7 14 10
78 10 l92 0 0 31 0 31 -92 -3 c-64 -2 -93 0 -93 8 0 6 -3 15 -7 19 -5 4 -8 18
-8 30 0 19 7 24 47 30 58 9 97 -4 101 -34 4 -27 -14 -29 -21 -2 -4 16 -13 20
-49 18 l-43 -1 45 -7 45 -7 -42 -1 c-23 -1 -45 3 -48 8 -14 22 -23 8 -14 -20
7 -18 18 -30 27 -29 11 0 12 2 5 6 -27 10 -11 23 30 23 l42 -1 -30 -14 c-29
-13 -28 -13 38 -14 67 -1 67 -1 66 27 -1 16 -3 20 -6 10 -6 -24 -23 -23 -23 2
0 11 4 20 9 20 5 0 11 11 13 25 4 17 1 25 -8 25 -8 0 -14 -11 -14 -25 0 -14
-5 -25 -11 -25 -6 0 -8 7 -5 16 3 9 6 24 6 34 0 11 7 17 18 16 12 -1 18 7 20
27 l3 27 -300 0 -301 0 0 -50z"/>
<path d="M5848 5513 c7 -3 16 -2 19 1 4 3 -2 6 -13 5 -11 0 -14 -3 -6 -6z"/>
<path d="M5888 5513 c6 -2 18 -2 25 0 6 3 1 5 -13 5 -14 0 -19 -2 -12 -5z"/>
<path d="M200 4751 l0 -49 100 -1 100 -2 0 51 0 50 -100 0 -100 0 0 -49z"/>
<path d="M4800 3750 l0 -50 100 0 c80 0 100 3 100 14 0 8 -6 17 -12 19 -10 4
-10 6 0 6 7 1 12 14 12 31 l0 30 -100 0 -100 0 0 -50z"/>
<path d="M5000 3550 l0 -49 200 0 200 0 0 49 0 50 -200 0 -200 0 0 -50z"/>
<path d="M4600 3151 l0 -49 100 -1 100 -2 0 51 0 50 -100 0 -100 0 0 -49z"/>
<path d="M5200 3150 l0 -51 100 2 100 1 0 49 0 49 -100 0 -100 0 0 -50z"/>
<path d="M4600 2971 c0 -16 6 -32 13 -34 10 -4 10 -6 0 -6 -7 -1 -13 -8 -13
-16 0 -12 18 -15 100 -15 l100 0 0 50 0 50 -100 0 -100 0 0 -29z"/>
<path d="M5200 2950 l0 -50 100 0 100 0 0 50 0 50 -100 0 -100 0 0 -50z"/>
<path d="M0 2750 l0 -50 200 0 200 0 0 50 0 50 -200 0 -200 0 0 -50z"/>
<path d="M4400 2750 l0 -50 200 0 200 0 0 50 0 50 -200 0 -200 0 0 -50z"/>
<path d="M5200 2750 l0 -50 200 0 200 0 0 50 0 50 -200 0 -200 0 0 -50z"/>
<path d="M4400 2550 l0 -50 300 0 c252 0 300 2 300 14 0 8 -6 17 -12 19 -10 4
-10 6 0 6 7 1 12 14 12 31 l0 30 -300 0 -300 0 0 -50z"/>
<path d="M5200 2550 l0 -50 200 0 200 0 0 50 0 50 -200 0 -200 0 0 -50z"/>
<path d="M5800 2571 c0 -16 6 -32 13 -34 10 -4 10 -6 0 -6 -7 -1 -13 -8 -13
-17 0 -12 13 -15 70 -13 69 2 77 6 71 42 0 4 13 7 29 7 25 0 30 4 30 25 l0 25
-100 0 -100 0 0 -29z"/>
<path d="M5800 2351 l0 -48 70 -2 c69 -2 70 -1 70 24 0 21 5 25 30 25 25 0 30
4 30 25 l0 25 -100 0 -100 0 0 -49z"/>
<path d="M3073 2313 c26 -2 67 -2 90 0 23 2 2 3 -48 3 -49 0 -68 -1 -42 -3z"/>
<path d="M2993 2245 c0 -22 2 -30 4 -17 2 12 2 30 0 40 -3 9 -5 -1 -4 -23z"/>
<path d="M3782 2243 l-2 -43 -190 0 -190 0 0 -25 0 -25 100 0 100 0 0 -25 0
-25 1169 0 c1054 0 1170 2 1175 16 3 9 4 20 0 25 -3 5 9 9 25 9 26 0 31 4 31
25 l0 25 -1104 0 -1105 0 -4 43 -4 42 -1 -42z"/>
<path d="M1448 2073 c28 -2 76 -2 105 0 28 2 5 3 -53 3 -58 0 -81 -1 -52 -3z"/>
<path d="M1448 2053 c28 -2 76 -2 105 0 28 2 5 3 -53 3 -58 0 -81 -1 -52 -3z"/>
<path d="M1425 2031 c19 -9 19 -10 1 -10 -11 -1 -17 -2 -15 -4 2 -2 47 0 99 3
l95 7 -75 2 c-41 0 -86 4 -100 6 -22 5 -22 4 -5 -4z"/>
<path d="M3400 1950 l0 -50 1270 0 1270 0 0 25 c0 21 5 25 30 25 25 0 30 4 30
25 l0 25 -1300 0 -1300 0 0 -50z"/>
<path d="M1873 1913 c26 -2 67 -2 90 0 23 2 2 3 -48 3 -49 0 -68 -1 -42 -3z"/>
<path d="M2498 1913 c56 -2 148 -2 205 0 56 1 10 3 -103 3 -113 0 -159 -2
-102 -3z"/>
<path d="M1792 1830 c0 -14 2 -19 5 -12 2 6 2 18 0 25 -3 6 -5 1 -5 -13z"/>
<path d="M1863 1673 c26 -2 68 -2 95 0 26 2 4 3 -48 3 -52 0 -74 -1 -47 -3z"/>
<path d="M3113 1673 c54 -2 139 -2 190 0 51 1 7 3 -98 3 -104 0 -146 -2 -92
-3z"/>
<path d="M1806 1638 c3 -13 7 -23 8 -24 0 0 44 3 96 6 l95 7 -82 1 c-112 3
-117 20 -6 25 l88 3 -103 2 c-103 2 -103 2 -96 -20z"/>
<path d="M3000 1635 c0 -20 5 -25 23 -24 16 1 18 2 5 6 -10 2 -18 11 -18 20 0
13 2 14 17 2 11 -10 14 -10 9 -1 -6 9 29 12 158 12 104 0 166 -4 166 -10 0 -6
-60 -11 -157 -12 -182 -1 -162 -6 44 -10 78 -2 135 0 125 4 -16 6 -16 7 1 7 9
1 17 8 17 16 0 13 -28 15 -195 15 l-195 0 0 -25z"/>
<path d="M3113 1513 c48 -2 126 -2 175 0 48 1 8 3 -88 3 -96 0 -136 -2 -87 -3z"/>
<path d="M2972 1450 c0 -19 2 -27 5 -17 2 9 2 25 0 35 -3 9 -5 1 -5 -18z"/>
<path d="M1058 1273 c29 -2 74 -2 100 0 26 2 2 3 -53 3 -55 0 -76 -1 -47 -3z"/>
<path d="M2298 1273 c166 -2 438 -2 605 0 166 1 30 2 -303 2 -333 0 -469 -1
-302 -2z"/>
<path d="M1058 1253 c29 -2 74 -2 100 0 26 2 2 3 -53 3 -55 0 -76 -1 -47 -3z"/>
<path d="M2298 1253 c166 -2 438 -2 605 0 166 1 30 2 -303 2 -333 0 -469 -1
-302 -2z"/>
<path d="M1033 1227 c3 -9 2 -17 -2 -17 -5 0 -12 6 -14 13 -4 9 -6 9 -6 0 -1
-17 16 -25 33 -16 12 7 11 10 -2 23 -14 13 -15 12 -9 -3z"/>
<path d="M2973 1233 c9 -2 23 -2 30 0 6 3 -1 5 -18 5 -16 0 -22 -2 -12 -5z"/>
<path d="M1000 750 l0 -50 100 0 100 0 0 50 0 50 -100 0 -100 0 0 -50z"/>
<path d="M1478 713 c23 -2 61 -2 85 0 23 2 4 4 -43 4 -47 0 -66 -2 -42 -4z"/>
<path d="M2413 713 c103 -2 271 -2 375 0 103 1 18 2 -188 2 -206 0 -291 -1
-187 -2z"/>
<path d="M1200 550 l0 -50 100 0 100 0 0 50 0 50 -100 0 -100 0 0 -50z"/>
<path d="M1802 578 l3 -23 698 -3 697 -2 0 25 0 25 -701 0 -700 0 3 -22z"/>
<path d="M1398 350 l4 -50 299 0 299 0 0 50 0 50 -302 0 -303 0 3 -50z"/>
<path d="M2400 375 l0 -25 294 0 c226 0 296 -3 299 -12 3 -7 6 4 6 25 l1 37
-300 0 -300 0 0 -25z"/>
<path d="M3200 350 l0 -50 100 0 100 0 0 50 0 50 -100 0 -100 0 0 -50z"/>
<path d="M2713 313 c48 -2 125 -2 170 0 45 1 6 3 -88 3 -93 0 -130 -2 -82 -3z"/>
</g>
</svg>
